<svg width="128" height="128" viewBox="0 0 128 128" xmlns="http://www.w3.org/2000/svg">
  <!-- Background -->
  <rect width="128" height="128" rx="16" fill="#25D366"/>
  
  <!-- WhatsApp Icon Simplified -->
  <g transform="translate(24, 24)">
    <!-- Phone bubble -->
    <path d="M40 0C17.91 0 0 17.91 0 40c0 7.03 1.83 13.63 5.01 19.38L0.35 75.65l16.84-4.42C22.59 74.14 30.93 76 40 76c22.09 0 40-17.91 40-40S62.09 0 40 0z" 
          fill="white"/>
    
    <!-- Phone handset -->
    <path d="M57.5 47.8c-1.04-.53-6.15-3.03-7.1-3.38-.95-.34-1.64-.53-2.33.53-.69 1.07-2.66 3.38-3.26 4.07-.6.69-1.2.78-2.24.26-1.04-.53-4.39-1.62-8.37-5.16-3.09-2.76-5.18-6.16-5.78-7.22-.6-1.07-.06-1.64.46-2.18.48-.47 1.04-1.23 1.56-1.85.52-.62.69-1.07 1.04-1.78.34-.71.17-1.33-.09-1.85-.26-.53-2.33-5.61-3.19-7.69-.84-2.03-1.69-1.75-2.33-1.78-.6-.03-1.29-.04-1.98-.04-.69 0-1.81.26-2.76 1.33-.95 1.07-3.62 3.54-3.62 8.63 0 5.09 3.71 10.01 4.23 10.7.52.69 7.31 11.16 17.71 15.65 2.48 1.07 4.41 1.71 5.92 2.19 2.49.79 4.75.68 6.54.41 2-.3 6.15-2.52 7.02-4.95.86-2.43.86-4.51.6-4.95-.26-.44-.95-.71-1.99-1.24z" 
          fill="#25D366"/>
  </g>
  
  <!-- WAHA text indicator -->
  <text x="64" y="115" font-family="Arial, sans-serif" font-size="12" font-weight="bold" 
        text-anchor="middle" fill="white">WAHA</text>
</svg>
